<svg width="433" height="84" viewBox="0 0 433 84" fill="none" xmlns="http://www.w3.org/2000/svg">
<path d="M35.7759 8.2402L30.0517 15.6627C-0.288328 12.1744 4.68106 46.6176 25.0862 47.7371C25.8625 47.7797 26.3567 48.6568 25.9304 49.3096L12.8793 69.2958H38.6379L52.8167 50.7295C54.0818 49.0729 53.793 46.7045 52.1672 45.4032L37.828 33.926C37.6183 33.7581 37.5876 33.4497 37.7602 33.2435L42.1484 27.999C42.3174 27.7971 42.6172 27.7703 42.819 27.9392L62.4713 44.38C64.0698 45.7172 64.3065 48.0936 63.0034 49.7222L41.977 76H0L15.5029 53.0148C-12.1638 36.9718 6.20115 7.52128 20.75 8.2402H35.7759Z" fill="white"/>
<path d="M47.2241 75.7598L52.9483 68.3373C83.2883 71.8256 78.3189 37.3824 57.9138 36.2629C57.1375 36.2203 56.6433 35.3432 57.0696 34.6904L70.1207 14.7042H44.3621L30.1833 33.2705C28.9182 34.9271 29.207 37.2955 30.8328 38.5968L45.172 50.074C45.3817 50.2419 45.4124 50.5503 45.2398 50.7565L40.8516 56.001C40.6826 56.2029 40.3828 56.2297 40.181 56.0608L20.5287 39.62C18.9302 38.2828 18.6935 35.9064 19.9966 34.2778L41.023 8H83L67.4971 30.9852C95.1638 47.0282 76.7988 76.4787 62.25 75.7598H47.2241Z" fill="white"/>
<path d="M91.184 41.788L94.096 37.888C94.096 37.888 97.996 41.84 103.456 41.84C106.888 41.84 109.8 39.916 109.8 36.432C109.8 28.476 92.016 30.192 92.016 18.908C92.016 13.188 96.956 8.664 103.872 8.664C110.684 8.664 114.272 12.356 114.272 12.356L111.932 16.62C111.932 16.62 108.552 13.448 103.872 13.448C99.972 13.448 97.216 15.892 97.216 18.804C97.216 26.396 115 24.368 115 36.276C115 41.944 110.632 46.624 103.352 46.624C95.552 46.624 91.184 41.788 91.184 41.788ZM119.207 38.616C119.207 29.932 130.647 29.568 135.067 29.568H136.211V29.1C136.211 24.784 133.767 23.328 130.439 23.328C126.383 23.328 123.107 25.876 123.107 25.876L121.027 22.184C121.027 22.184 124.823 19.064 130.855 19.064C137.511 19.064 141.255 22.704 141.255 29.36V46H136.575V43.504C136.575 42.308 136.679 41.424 136.679 41.424H136.575C136.575 41.424 134.443 46.624 128.151 46.624C123.627 46.624 119.207 43.868 119.207 38.616ZM124.303 38.356C124.303 40.488 125.967 42.568 129.243 42.568C133.507 42.568 136.263 38.096 136.263 34.196V33.364H134.963C131.167 33.364 124.303 33.624 124.303 38.356ZM148.759 14.436V9.288H153.855V14.436H148.759ZM148.811 46V19.688H153.855V46H148.811ZM163.165 46V24.108H159.889V20.052H163.165V18.804C163.165 10.12 169.717 9.028 173.045 9.028C174.189 9.028 174.969 9.184 174.969 9.184V13.5C174.969 13.5 174.449 13.396 173.669 13.396C171.745 13.396 168.157 14.02 168.157 18.908V20.052H174.397V24.108H168.157V46H163.165ZM177.409 32.844C177.409 24.472 183.077 19.064 190.565 19.064C198.001 19.064 201.953 24.576 201.953 31.388C201.953 32.064 201.797 33.572 201.797 33.572H182.609C182.869 39.344 186.977 42.256 191.657 42.256C196.181 42.256 199.457 39.188 199.457 39.188L201.537 42.88C201.537 42.88 197.637 46.624 191.345 46.624C183.077 46.624 177.409 40.644 177.409 32.844ZM182.765 29.776H196.805C196.649 25.252 193.841 23.068 190.461 23.068C186.613 23.068 183.493 25.46 182.765 29.776ZM206.253 32.844C206.253 24.472 211.921 19.064 219.409 19.064C226.845 19.064 230.797 24.576 230.797 31.388C230.797 32.064 230.641 33.572 230.641 33.572H211.453C211.713 39.344 215.821 42.256 220.501 42.256C225.025 42.256 228.301 39.188 228.301 39.188L230.381 42.88C230.381 42.88 226.481 46.624 220.189 46.624C211.921 46.624 206.253 40.644 206.253 32.844ZM211.609 29.776H225.649C225.493 25.252 222.685 23.068 219.305 23.068C215.457 23.068 212.337 25.46 211.609 29.776ZM251.312 46V9.288H264.156C270.344 9.288 274.816 12.72 274.816 18.648C274.816 22.236 273.048 25.096 270.24 26.552V26.656C274.088 27.8 276.272 31.44 276.272 35.548C276.272 42.464 270.916 46 264.468 46H251.312ZM256.46 24.732H264.156C267.484 24.732 269.564 22.392 269.564 19.168C269.564 15.944 267.588 13.76 264.052 13.76H256.46V24.732ZM256.46 41.528H264.728C268.68 41.528 271.02 39.032 271.02 35.288C271.02 31.544 268.524 28.996 264.676 28.996H256.46V41.528ZM282.865 36.536V19.688H287.909V35.392C287.909 39.032 288.637 41.944 292.849 41.944C298.205 41.944 301.377 37.212 301.377 32.012V19.688H306.421V46H301.533V42.516C301.533 41.424 301.637 40.592 301.637 40.592H301.533C300.441 43.192 297.009 46.624 291.861 46.624C285.933 46.624 282.865 43.504 282.865 36.536ZM314.307 46V19.688H319.195V24.264C319.195 25.356 319.091 26.24 319.091 26.24H319.195C320.391 22.392 323.459 19.376 327.515 19.376C328.191 19.376 328.815 19.48 328.815 19.48V24.472C328.815 24.472 328.139 24.316 327.359 24.316C324.135 24.316 321.171 26.604 319.975 30.504C319.507 32.012 319.351 33.624 319.351 35.236V46H314.307ZM333.807 46V9.288H338.851V22.756C338.851 24.004 338.747 24.94 338.747 24.94H338.851C339.995 22.392 343.323 19.064 348.575 19.064C354.763 19.064 357.623 22.444 357.623 29.152V46H352.579V30.296C352.579 26.604 351.799 23.692 347.587 23.692C343.635 23.692 340.359 26.396 339.267 30.192C338.955 31.232 338.851 32.428 338.851 33.676V46H333.807ZM363.008 38.616C363.008 29.932 374.448 29.568 378.868 29.568H380.012V29.1C380.012 24.784 377.568 23.328 374.24 23.328C370.184 23.328 366.908 25.876 366.908 25.876L364.828 22.184C364.828 22.184 368.624 19.064 374.656 19.064C381.312 19.064 385.056 22.704 385.056 29.36V46H380.376V43.504C380.376 42.308 380.48 41.424 380.48 41.424H380.376C380.376 41.424 378.244 46.624 371.952 46.624C367.428 46.624 363.008 43.868 363.008 38.616ZM368.104 38.356C368.104 40.488 369.768 42.568 373.044 42.568C377.308 42.568 380.064 38.096 380.064 34.196V33.364H378.764C374.968 33.364 368.104 33.624 368.104 38.356ZM392.612 46V19.688H397.5V23.172C397.5 24.212 397.396 25.096 397.396 25.096H397.5C398.54 22.808 401.66 19.064 407.38 19.064C413.568 19.064 416.428 22.444 416.428 29.152V46H411.384V30.296C411.384 26.604 410.604 23.692 406.392 23.692C402.388 23.692 399.164 26.344 398.072 30.14C397.76 31.18 397.656 32.376 397.656 33.676V46H392.612ZM423.892 14.436V9.288H428.988V14.436H423.892ZM423.944 46V19.688H428.988V46H423.944Z" fill="white"/>
<path d="M98.448 78V61.128H103.896C108.96 61.128 112.368 64.224 112.368 69.552C112.368 74.928 108.96 78 103.896 78H98.448ZM100.104 76.512H103.728C107.88 76.512 110.64 74.064 110.64 69.552C110.64 65.064 107.856 62.616 103.728 62.616H100.104V76.512ZM122.454 78V61.128H131.958V62.616H124.11V68.76H130.518V70.248H124.11V76.512H132.39V78H122.454ZM141.157 76.128L142.141 74.856C142.141 74.856 143.893 76.704 146.557 76.704C148.405 76.704 149.917 75.6 149.917 73.776C149.917 69.528 141.493 70.608 141.493 65.376C141.493 62.952 143.629 60.84 146.749 60.84C149.677 60.84 151.261 62.472 151.261 62.472L150.445 63.864C150.445 63.864 148.957 62.424 146.749 62.424C144.589 62.424 143.197 63.84 143.197 65.328C143.197 69.336 151.621 68.184 151.621 73.728C151.621 76.248 149.677 78.288 146.509 78.288C143.053 78.288 141.157 76.128 141.157 76.128ZM161.559 78V61.128H163.215V78H161.559ZM173.233 69.552C173.233 64.68 176.881 60.84 181.729 60.84C185.641 60.84 187.729 62.808 187.729 62.808L186.841 64.056C186.841 64.056 184.873 62.376 181.801 62.376C177.721 62.376 174.961 65.52 174.961 69.528C174.961 73.68 177.817 76.752 181.657 76.752C184.945 76.752 186.961 74.28 186.961 74.28V71.424H184.081V69.936H188.545V78H187.009V76.728C187.009 76.368 187.033 76.008 187.033 76.008H186.985C186.985 76.008 185.041 78.288 181.489 78.288C176.881 78.288 173.233 74.568 173.233 69.552ZM198.789 78V61.128H200.397L209.013 73.272C209.589 74.112 210.405 75.552 210.405 75.552H210.453C210.453 75.552 210.309 74.16 210.309 73.272V61.128H211.965V78H210.357L201.741 65.856C201.165 65.016 200.349 63.576 200.349 63.576H200.301C200.301 63.576 200.445 64.968 200.445 65.856V78H198.789ZM234.776 73.344C234.776 71.4 235.88 69.504 237.848 68.904V68.856C237.848 68.856 235.496 68.112 235.496 65.112C235.496 62.52 237.488 60.84 240.56 60.84C241.376 60.84 242.48 61.08 242.48 61.08L242 62.472C242 62.472 241.208 62.304 240.608 62.304C238.712 62.304 237.224 63.384 237.224 65.208C237.224 66.336 237.704 68.256 240.848 68.256H244.4V65.88H246.056V68.256H248.336V69.744H246.056V72.216C246.056 76.248 243.848 78.288 240.464 78.288C237.08 78.288 234.776 76.152 234.776 73.344ZM236.48 73.248C236.48 75.168 237.968 76.728 240.464 76.728C242.84 76.728 244.4 75.408 244.4 72.168V69.744H240.848C237.92 69.744 236.48 71.136 236.48 73.248ZM269.753 69.456C269.753 64.56 273.401 60.84 278.225 60.84C282.257 60.84 284.297 63.024 284.297 63.024L283.409 64.248C283.409 64.248 281.441 62.376 278.273 62.376C274.313 62.376 271.481 65.448 271.481 69.432C271.481 73.464 274.313 76.752 278.321 76.752C281.729 76.752 283.793 74.496 283.793 74.496L284.753 75.672C284.753 75.672 282.449 78.288 278.297 78.288C273.305 78.288 269.753 74.376 269.753 69.456ZM294.582 78V61.128H299.574C301.302 61.128 302.07 61.296 302.742 61.584C304.326 62.28 305.286 63.888 305.286 65.928C305.286 68.208 303.99 69.96 302.094 70.488V70.536C302.094 70.536 302.262 70.752 302.526 71.208L306.198 78H304.302L300.486 70.896H296.238V78H294.582ZM296.238 69.408H300.246C302.286 69.408 303.582 68.088 303.582 65.976C303.582 64.584 303.03 63.552 302.046 63.024C301.542 62.76 300.942 62.616 299.646 62.616H296.238V69.408ZM315.893 78V61.128H325.397V62.616H317.549V68.76H323.957V70.248H317.549V76.512H325.829V78H315.893ZM346.116 78L344.172 72.624H337.38L335.46 78H333.708L339.9 61.128H341.676L347.868 78H346.116ZM340.812 62.88H340.764C340.764 62.88 340.404 64.272 340.116 65.064L337.86 71.184H343.668L341.46 65.064C341.172 64.272 340.812 62.88 340.812 62.88ZM359.587 78V62.616H353.515V61.128H367.291V62.616H361.243V78H359.587ZM376.144 78V61.128H377.8V78H376.144ZM387.794 69.456C387.794 64.608 391.61 60.84 396.386 60.84C401.162 60.84 404.978 64.608 404.978 69.456C404.978 74.4 401.162 78.288 396.386 78.288C391.61 78.288 387.794 74.4 387.794 69.456ZM389.522 69.456C389.522 73.584 392.57 76.752 396.386 76.752C400.178 76.752 403.25 73.584 403.25 69.456C403.25 65.424 400.178 62.376 396.386 62.376C392.57 62.376 389.522 65.424 389.522 69.456ZM414.968 78V61.128H416.576L425.192 73.272C425.768 74.112 426.584 75.552 426.584 75.552H426.632C426.632 75.552 426.488 74.16 426.488 73.272V61.128H428.144V78H426.536L417.92 65.856C417.344 65.016 416.528 63.576 416.528 63.576H416.48C416.48 63.576 416.624 64.968 416.624 65.856V78H414.968Z" fill="white"/>
</svg>
