<svg width="420" height="344" viewBox="0 0 420 344" fill="none" xmlns="http://www.w3.org/2000/svg">
<path d="M181.035 1.39567L152.069 38.9053C-1.45901 21.277 23.6873 195.335 126.942 200.992C130.871 201.207 133.371 205.64 131.214 208.939L65.1724 309.939H195.517L267.265 216.114C273.667 207.743 272.206 195.774 263.979 189.198L191.419 131.198C190.358 130.35 190.203 128.791 191.076 127.749L213.281 101.246C214.136 100.226 215.653 100.091 216.675 100.944L316.12 184.027C324.209 190.785 325.406 202.794 318.812 211.024L212.414 343.818H0L78.4483 227.663C-61.5517 146.59 31.3793 -2.2374 105 1.39567H181.035Z" fill="white"/>
<path d="M238.965 342.604L267.931 305.095C421.459 322.723 396.313 148.665 293.058 143.008C289.129 142.793 286.629 138.36 288.786 135.061L354.828 34.0615H224.483L152.735 127.886C146.333 136.257 147.794 148.226 156.021 154.802L228.581 212.802C229.642 213.65 229.797 215.209 228.924 216.251L206.719 242.753C205.864 243.774 204.347 243.909 203.325 243.056L103.88 159.973C95.7915 153.215 94.5938 141.206 101.188 132.976L207.586 0.181824H420L341.552 116.337C481.552 197.41 388.621 346.237 315 342.604H238.965Z" fill="white"/>
</svg>
