<svg width="165" height="70" viewBox="0 0 165 70" fill="none" xmlns="http://www.w3.org/2000/svg">
<g clip-path="url(#clip0_95_6)">
<path d="M41.1094 70.9375C37.7031 70.9375 34.5625 70.0625 31.6875 68.3125C28.8438 66.5625 26.5625 64.2344 24.8438 61.3281C23.1562 58.3906 22.3125 55.1719 22.3125 51.6719V47.2656C22.3125 46.9219 22.4688 46.75 22.7812 46.75H33.5625C33.8125 46.75 33.9375 46.9219 33.9375 47.2656V51.6719C33.9375 53.7656 34.6406 55.5781 36.0469 57.1094C37.4531 58.6094 39.1406 59.3594 41.1094 59.3594C43.1094 59.3594 44.8125 58.5938 46.2188 57.0625C47.625 55.5 48.3281 53.7031 48.3281 51.6719C48.3281 49.3281 46.7969 47.2812 43.7344 45.5312C43.2344 45.2188 42.5781 44.8438 41.7656 44.4062C40.9844 43.9375 40.0469 43.4062 38.9531 42.8125C37.8594 42.2188 36.7969 41.6406 35.7656 41.0781C34.7344 40.4844 33.7344 39.9219 32.7656 39.3906C29.2656 37.3281 26.6562 34.75 24.9375 31.6562C23.25 28.5312 22.4062 25.0312 22.4062 21.1562C22.4062 17.5938 23.2812 14.375 25.0312 11.5C26.7812 8.65625 29.0625 6.40625 31.875 4.75C34.7188 3.0625 37.7969 2.21875 41.1094 2.21875C44.5156 2.21875 47.6406 3.0625 50.4844 4.75C53.3281 6.46875 55.5938 8.75 57.2812 11.5938C59 14.4375 59.8594 17.625 59.8594 21.1562V29.0312C59.8594 29.2812 59.7344 29.4062 59.4844 29.4062H48.7031C48.4531 29.4062 48.3281 29.2812 48.3281 29.0312L48.2344 21.1562C48.2344 18.9062 47.5312 17.0781 46.125 15.6719C44.7188 14.2656 43.0469 13.5625 41.1094 13.5625C39.1406 13.5625 37.4531 14.3125 36.0469 15.8125C34.6406 17.3125 33.9375 19.0938 33.9375 21.1562C33.9375 23.25 34.375 25 35.25 26.4062C36.1562 27.8125 37.7969 29.1562 40.1719 30.4375C40.4219 30.5625 41 30.875 41.9062 31.375C42.8125 31.875 43.8125 32.4375 44.9062 33.0625C46.0312 33.6562 47.0469 34.2031 47.9531 34.7031C48.8594 35.1719 49.4062 35.4531 49.5938 35.5469C52.7812 37.3281 55.2969 39.5156 57.1406 42.1094C59.0156 44.7031 59.9531 47.8906 59.9531 51.6719C59.9531 55.3281 59.1094 58.6094 57.4219 61.5156C55.7031 64.4219 53.4219 66.7188 50.5781 68.4062C47.7344 70.0938 44.5781 70.9375 41.1094 70.9375ZM84.1875 70H66.9844C66.7344 70 66.6094 69.8438 66.6094 69.5312L66.7969 3.57812C66.7969 3.32812 66.9219 3.20312 67.1719 3.20312H85.6406C89.2344 3.20312 92.5 4.07812 95.4375 5.82812C98.3125 7.57812 100.578 9.90625 102.234 12.8125C103.891 15.6875 104.719 18.8125 104.719 22.1875C104.719 24.9375 104.094 27.5 102.844 29.875C101.594 32.25 100.109 34.1719 98.3906 35.6406C100.234 37.4844 101.672 39.625 102.703 42.0625C103.734 44.5 104.25 47.0625 104.25 49.75C104.25 53.4688 103.359 56.8594 101.578 59.9219C99.7656 62.9844 97.3438 65.4375 94.3125 67.2812C91.2812 69.0938 87.9062 70 84.1875 70ZM85.6406 14.5938H78.3281V29.6875H85.6406C87.8594 29.6875 89.6562 28.9062 91.0312 27.3438C92.4062 25.75 93.0938 24.0312 93.0938 22.1875C93.0938 20.1562 92.3594 18.3906 90.8906 16.8906C89.4219 15.3594 87.6719 14.5938 85.6406 14.5938ZM84.1875 41.3125H78.3281L78.2344 58.2812H84.1875C86.5 58.2812 88.4844 57.4375 90.1406 55.75C91.7969 54.0625 92.625 52.0625 92.625 49.75C92.625 47.4375 91.7969 45.4531 90.1406 43.7969C88.4844 42.1406 86.5 41.3125 84.1875 41.3125ZM128.812 70.9375C125.344 70.9375 122.172 70.0625 119.297 68.3125C116.453 66.5625 114.188 64.2188 112.5 61.2812C110.844 58.3125 110.016 55.0156 110.016 51.3906L110.109 21.4375C110.109 17.875 110.922 14.6562 112.547 11.7812C114.172 8.875 116.406 6.54688 119.25 4.79688C122.125 3.01562 125.312 2.125 128.812 2.125C132.375 2.125 135.547 2.98438 138.328 4.70312C141.141 6.42188 143.375 8.75 145.031 11.6875C146.719 14.5938 147.562 17.8438 147.562 21.4375V25.8438C147.562 26.0938 147.438 26.2188 147.188 26.2188H136.406C136.156 26.2188 136.031 26.0938 136.031 25.8438V21.4375C136.031 19.3125 135.344 17.4844 133.969 15.9531C132.594 14.4219 130.875 13.6562 128.812 13.6562C126.531 13.6562 124.781 14.4375 123.562 16C122.344 17.5625 121.734 19.375 121.734 21.4375V51.3906C121.734 53.7344 122.422 55.6562 123.797 57.1562C125.172 58.625 126.844 59.3594 128.812 59.3594C130.875 59.3594 132.594 58.5469 133.969 56.9219C135.344 55.2656 136.031 53.4219 136.031 51.3906V46.9375C136.031 46.6875 136.156 46.5625 136.406 46.5625H147.281C147.531 46.5625 147.656 46.6875 147.656 46.9375V51.3906C147.656 54.9844 146.812 58.2656 145.125 61.2344C143.406 64.1719 141.141 66.5312 138.328 68.3125C135.516 70.0625 132.344 70.9375 128.812 70.9375Z" fill="#CCD6F6"/>
</g>
<defs>
<clipPath id="clip0_95_6">
<rect width="165" height="70" fill="white"/>
</clipPath>
</defs>
</svg>
